<svg xmlns="http://www.w3.org/2000/svg" width="168" height="35" fill="none"><path fill="#fff" d="m4.888 26-3.48-11.904h3.048l2.064 8.568 2.4-8.568h3.408l2.4 8.568 2.088-8.568h3.048L16.36 26h-3.192l-2.544-8.904L8.08 26H4.888Zm22.276.288c-1.2 0-2.264-.256-3.192-.768a5.559 5.559 0 0 1-2.184-2.16c-.528-.928-.792-2-.792-3.216 0-1.232.256-2.328.768-3.288a5.687 5.687 0 0 1 2.16-2.232c.928-.544 2.016-.816 3.264-.816 1.168 0 2.2.256 3.096.768a5.407 5.407 0 0 1 2.088 2.112c.512.88.768 1.864.768 2.952 0 .176-.008.36-.024.552 0 .192-.008.392-.024.6h-9.048c.064.928.384 1.656.96 2.184.592.528 1.304.792 2.136.792.624 0 1.144-.136 1.56-.408.432-.288.752-.656.96-1.104h3.12a5.68 5.68 0 0 1-1.128 2.064 5.423 5.423 0 0 1-1.92 1.44c-.752.352-1.608.528-2.568.528Zm.024-9.984a3.23 3.23 0 0 0-1.992.648c-.576.416-.944 1.056-1.104 1.92h5.928c-.048-.784-.336-1.408-.864-1.872-.528-.464-1.184-.696-1.968-.696Zm15.592 9.984c-.896 0-1.68-.168-2.352-.504a4.24 4.24 0 0 1-1.632-1.416L38.46 26h-2.736V8.72h3.072v7.08c.384-.528.888-.992 1.512-1.392.64-.4 1.464-.6 2.472-.6 1.12 0 2.12.272 3 .816a5.846 5.846 0 0 1 2.088 2.232c.512.944.768 2.016.768 3.216 0 1.2-.256 2.272-.768 3.216a5.894 5.894 0 0 1-2.088 2.208c-.88.528-1.88.792-3 .792Zm-.648-2.688c.976 0 1.784-.328 2.424-.984.64-.656.96-1.504.96-2.544s-.32-1.896-.96-2.568c-.64-.672-1.448-1.008-2.424-1.008-.992 0-1.808.336-2.448 1.008-.624.656-.936 1.504-.936 2.544s.312 1.896.936 2.568c.64.656 1.456.984 2.448.984ZM62.403 26c-1.248 0-2.248-.304-3-.912-.752-.608-1.128-1.688-1.128-3.24v-5.184h-2.04v-2.568h2.04l.36-3.192h2.712v3.192h3.216v2.568h-3.216v5.208c0 .576.12.976.36 1.2.256.208.688.312 1.296.312h1.488V26h-2.088Zm10.277.288c-1.2 0-2.264-.256-3.192-.768a5.559 5.559 0 0 1-2.184-2.16c-.528-.928-.792-2-.792-3.216 0-1.232.256-2.328.768-3.288a5.687 5.687 0 0 1 2.16-2.232c.928-.544 2.016-.816 3.264-.816 1.168 0 2.2.256 3.096.768a5.407 5.407 0 0 1 2.088 2.112c.512.88.768 1.864.768 2.952 0 .176-.008.36-.024.552 0 .192-.008.392-.024.6H69.56c.064.928.384 1.656.96 2.184.592.528 1.304.792 2.136.792.624 0 1.144-.136 1.56-.408.432-.288.752-.656.96-1.104h3.12a5.68 5.68 0 0 1-1.128 2.064 5.423 5.423 0 0 1-1.92 1.44c-.752.352-1.608.528-2.568.528Zm.024-9.984a3.23 3.23 0 0 0-1.992.648c-.576.416-.944 1.056-1.104 1.92h5.928c-.048-.784-.336-1.408-.864-1.872-.528-.464-1.184-.696-1.968-.696ZM81.24 26V14.096h2.712l.264 1.608a4.152 4.152 0 0 1 1.512-1.368c.64-.352 1.376-.528 2.208-.528 1.84 0 3.144.712 3.912 2.136a4.648 4.648 0 0 1 1.728-1.56 5.11 5.11 0 0 1 2.4-.576c1.552 0 2.744.464 3.576 1.392.832.928 1.248 2.288 1.248 4.08V26h-3.072v-6.432c0-1.024-.2-1.808-.6-2.352-.384-.544-.984-.816-1.8-.816-.832 0-1.504.304-2.016.912-.496.608-.744 1.456-.744 2.544V26h-3.072v-6.432c0-1.024-.2-1.808-.6-2.352-.4-.544-1.016-.816-1.848-.816-.816 0-1.48.304-1.992.912-.496.608-.744 1.456-.744 2.544V26H81.24Zm22.476 5.28V14.096h2.736l.336 1.704c.384-.528.888-.992 1.512-1.392.64-.4 1.464-.6 2.472-.6 1.12 0 2.12.272 3 .816a5.846 5.846 0 0 1 2.088 2.232c.512.944.768 2.016.768 3.216 0 1.2-.256 2.272-.768 3.216a5.894 5.894 0 0 1-2.088 2.208c-.88.528-1.88.792-3 .792-.896 0-1.68-.168-2.352-.504a4.24 4.24 0 0 1-1.632-1.416v6.912h-3.072Zm6.408-7.68c.976 0 1.784-.328 2.424-.984.64-.656.96-1.504.96-2.544s-.32-1.896-.96-2.568c-.64-.672-1.448-1.008-2.424-1.008-.992 0-1.808.336-2.448 1.008-.624.656-.936 1.504-.936 2.544s.312 1.896.936 2.568c.64.656 1.456.984 2.448.984Zm9.249 2.4V8.72h3.072V26h-3.072Zm10.314.288c-1.024 0-1.864-.16-2.52-.48-.656-.336-1.144-.776-1.464-1.32a3.485 3.485 0 0 1-.48-1.8c0-1.104.432-2 1.296-2.688.864-.688 2.16-1.032 3.888-1.032h3.024v-.288c0-.816-.232-1.416-.696-1.8-.464-.384-1.04-.576-1.728-.576-.624 0-1.168.152-1.632.456-.464.288-.752.72-.864 1.296h-3c.08-.864.368-1.616.864-2.256a4.9 4.9 0 0 1 1.968-1.464c.8-.352 1.696-.528 2.688-.528 1.696 0 3.032.424 4.008 1.272.976.848 1.464 2.048 1.464 3.6V26h-2.616l-.288-1.92a4.401 4.401 0 0 1-1.488 1.584c-.624.416-1.432.624-2.424.624Zm.696-2.4c.88 0 1.56-.288 2.04-.864.496-.576.808-1.288.936-2.136h-2.616c-.816 0-1.4.152-1.752.456-.352.288-.528.648-.528 1.08 0 .464.176.824.528 1.08.352.256.816.384 1.392.384ZM144.575 26c-1.248 0-2.248-.304-3-.912-.752-.608-1.128-1.688-1.128-3.24v-5.184h-2.04v-2.568h2.04l.36-3.192h2.712v3.192h3.216v2.568h-3.216v5.208c0 .576.12.976.36 1.2.256.208.688.312 1.296.312h1.488V26h-2.088Zm10.277.288c-1.2 0-2.264-.256-3.192-.768a5.559 5.559 0 0 1-2.184-2.16c-.528-.928-.792-2-.792-3.216 0-1.232.256-2.328.768-3.288a5.687 5.687 0 0 1 2.16-2.232c.928-.544 2.016-.816 3.264-.816 1.168 0 2.2.256 3.096.768a5.407 5.407 0 0 1 2.088 2.112c.512.88.768 1.864.768 2.952 0 .176-.008.36-.024.552 0 .192-.008.392-.024.6h-9.048c.064.928.384 1.656.96 2.184.592.528 1.304.792 2.136.792.624 0 1.144-.136 1.56-.408.432-.288.752-.656.96-1.104h3.12a5.68 5.68 0 0 1-1.128 2.064 5.423 5.423 0 0 1-1.92 1.44c-.752.352-1.608.528-2.568.528Zm.024-9.984a3.23 3.23 0 0 0-1.992.648c-.576.416-.944 1.056-1.104 1.92h5.928c-.048-.784-.336-1.408-.864-1.872-.528-.464-1.184-.696-1.968-.696Z"/><path fill="#FCD202" d="M164.732 26.168c-.56 0-1.024-.176-1.392-.528a1.734 1.734 0 0 1-.528-1.272c0-.512.176-.944.528-1.296.368-.352.832-.528 1.392-.528.56 0 1.016.176 1.368.528.368.352.552.784.552 1.296 0 .496-.184.92-.552 1.272-.352.352-.808.528-1.368.528Z"/></svg>