<?xml version="1.0" standalone="no"?>
<!DOCTYPE svg PUBLIC "-//W3C//DTD SVG 20010904//EN"
 "http://www.w3.org/TR/2001/REC-SVG-20010904/DTD/svg10.dtd">
<svg version="1.0" xmlns="http://www.w3.org/2000/svg"
 width="512.000000pt" height="512.000000pt" viewBox="0 0 512.000000 512.000000"
 preserveAspectRatio="xMidYMid meet">
<metadata>
Created by potrace 1.14, written by Peter Selinger 2001-2017
</metadata>
<g transform="translate(0.000000,512.000000) scale(0.100000,-0.100000)"
fill="#000000" stroke="none">
<path d="M3169 3413 c-1 -21 -3 -47 -4 -58 -6 -47 -16 -133 -19 -165 -7 -68
-18 -145 -22 -149 -2 -2 -61 -4 -131 -5 l-128 -1 0 -162 c0 -137 2 -162 15
-165 8 -2 68 -3 133 -3 l117 1 1 -385 c0 -212 2 -397 5 -411 36 -216 119 -318
309 -380 60 -20 65 -21 283 -27 l202 -5 0 169 0 169 -117 1 c-160 2 -197 9
-238 44 -26 23 -36 41 -41 77 -7 45 -13 716 -7 738 3 7 70 10 199 10 108 -1
200 1 204 4 8 5 12 112 11 266 l-1 61 -192 1 c-106 0 -200 1 -208 1 -13 1 -15
30 -14 206 l2 205 -179 0 -179 0 -1 -37z"/>
<path d="M346 3032 c-3 -2 0 -16 6 -31 6 -14 14 -39 18 -56 4 -16 63 -217 130
-445 67 -228 126 -428 130 -445 4 -16 40 -140 79 -275 40 -135 74 -253 77
-262 5 -16 24 -18 212 -18 l207 0 89 313 c49 171 95 332 102 357 21 69 65 223
69 241 4 17 53 192 62 219 5 16 18 -9 27 -53 3 -12 73 -258 155 -547 83 -289
151 -526 151 -527 0 -2 93 -3 208 -3 l207 0 74 253 c41 138 80 272 87 297 7
25 31 106 53 180 22 74 62 212 90 305 27 94 64 217 81 275 41 136 60 202 60
216 0 7 -61 11 -194 11 l-194 0 -21 -86 c-37 -152 -152 -625 -156 -641 -2 -8
-13 -55 -25 -105 -12 -49 -24 -99 -26 -110 -18 -90 -41 -158 -47 -140 -3 11
-22 79 -42 150 -20 72 -44 159 -55 195 -31 106 -141 497 -145 517 -7 31 -53
187 -59 204 -6 14 -34 16 -225 16 l-219 0 -21 -76 c-12 -42 -42 -148 -66 -236
-25 -88 -48 -169 -50 -180 -3 -11 -22 -81 -43 -155 -22 -74 -59 -206 -83 -293
-29 -107 -46 -153 -51 -140 -4 10 -32 126 -64 258 -31 132 -86 359 -121 505
-70 282 -71 289 -72 306 -1 8 -59 11 -196 11 -107 0 -197 -2 -199 -5z"/>
<path d="M4360 1932 c-67 -23 -134 -97 -147 -162 -23 -115 21 -214 118 -266
48 -27 190 -26 239 0 103 56 151 166 120 277 -14 50 -81 123 -132 144 -56 22
-142 25 -198 7z"/>
</g>
</svg>
